<?xml version="1.0" standalone="no"?>
<!DOCTYPE svg PUBLIC "-//W3C//DTD SVG 20010904//EN"
 "http://www.w3.org/TR/2001/REC-SVG-20010904/DTD/svg10.dtd">
<svg version="1.0" xmlns="http://www.w3.org/2000/svg"
 width="214.000000pt" height="206.000000pt" viewBox="0 0 214.000000 206.000000"
 preserveAspectRatio="xMidYMid meet">

<g transform="translate(0.000000,206.000000) scale(0.100000,-0.100000)"
fill="#000000" stroke="none">
<path d="M75 1980 l-70 -70 218 -218 217 -217 -187 -188 -188 -187 312 -312
313 -313 75 75 75 75 -237 237 -238 238 113 112 112 113 665 -665 665 -665 72
72 72 72 -950 953 c-522 524 -954 954 -959 956 -6 1 -41 -29 -80 -68z"/>
<path d="M1452 1648 l-72 -73 237 -237 238 -238 -113 -113 -112 -112 75 -75
75 -75 180 180 c99 99 180 187 180 195 0 13 -597 620 -610 620 -3 0 -38 -33
-78 -72z"/>
</g>
</svg>
